<svg width="50" height="50" viewBox="0 0 50 50" fill="none" xmlns="http://www.w3.org/2000/svg">
<path d="M25.0489 19.6602L14.4949 30.2142L17.2516 32.9709L23.0996 27.1229V46.491H26.9982V27.1229L32.8461 32.9709L35.6029 30.2142L25.0489 19.6602Z" fill="#FF7200"/>
<path d="M40.6374 18.865C40.4068 10.3584 33.4151 3.50879 24.8538 3.50879C20.9208 3.50879 17.1524 4.96387 14.2428 7.60576C11.7356 9.88213 10.0415 12.875 9.37813 16.1536C7.00801 16.6633 4.84463 17.8893 3.1708 19.6937C1.12607 21.8983 0 24.7693 0 27.7777C0 34.3344 5.33418 39.6686 11.8908 39.6686C11.9063 39.6686 11.9217 39.6684 11.9329 39.6682H13.9376V35.7695H11.9168L11.8797 35.7699C7.47793 35.7639 3.89863 32.181 3.89863 27.7777C3.89863 23.6405 7.12432 20.1414 11.2423 19.8118L12.8603 19.6823L13.026 18.0678C13.6495 11.9903 18.7345 7.40732 24.8538 7.40732C31.4104 7.40732 36.7446 12.7415 36.7446 19.2981V22.7095H39.5711C43.1719 22.7095 46.1013 25.6389 46.1013 29.2396C46.1013 32.8404 43.1719 35.7698 39.5711 35.7698L36.1598 35.7691V39.668H39.5076C39.5288 39.6684 39.5499 39.6687 39.5711 39.6687C45.3217 39.6687 50 34.9902 50 29.2397C50 23.849 45.8892 19.4006 40.6374 18.865Z" fill="#FF7200"/>
</svg>
